<svg xmlns="http://www.w3.org/2000/svg" width="760" height="382" viewBox="0 0 760 382">
<rect width="100%" height="100%" fill="#ffffff"/>
<text x="12" y="24" font-size="16" font-weight="700">命令耗时分布</text>
<text x="12" y="56" font-size="12">management_operation cmd-000001</text>
<rect x="230" y="42" width="380" height="18" fill="#475f9b"/>
<text x="620" y="56" font-size="12">10.000 ms</text>
<text x="12" y="88" font-size="12">management_operation cmd-000002</text>
<rect x="230" y="74" width="380" height="18" fill="#475f9b"/>
<text x="620" y="88" font-size="12">10.000 ms</text>
<text x="12" y="120" font-size="12">management_operation cmd-000003</text>
<rect x="230" y="106" width="380" height="18" fill="#475f9b"/>
<text x="620" y="120" font-size="12">10.000 ms</text>
<text x="12" y="152" font-size="12">management_operation cmd-000004</text>
<rect x="230" y="138" width="380" height="18" fill="#475f9b"/>
<text x="620" y="152" font-size="12">10.000 ms</text>
<text x="12" y="184" font-size="12">management_operation cmd-000005</text>
<rect x="230" y="170" width="380" height="18" fill="#475f9b"/>
<text x="620" y="184" font-size="12">10.000 ms</text>
<text x="12" y="216" font-size="12">management_operation cmd-000006</text>
<rect x="230" y="202" width="380" height="18" fill="#475f9b"/>
<text x="620" y="216" font-size="12">10.000 ms</text>
<text x="12" y="248" font-size="12">management_operation cmd-000007</text>
<rect x="230" y="234" width="380" height="18" fill="#475f9b"/>
<text x="620" y="248" font-size="12">10.000 ms</text>
<text x="12" y="280" font-size="12">management_operation cmd-000008</text>
<rect x="230" y="266" width="380" height="18" fill="#475f9b"/>
<text x="620" y="280" font-size="12">10.000 ms</text>
<text x="12" y="312" font-size="12">management_operation cmd-000009</text>
<rect x="230" y="298" width="380" height="18" fill="#475f9b"/>
<text x="620" y="312" font-size="12">10.000 ms</text>
<text x="12" y="344" font-size="12">management_operation cmd-000010</text>
<rect x="230" y="330" width="380" height="18" fill="#475f9b"/>
<text x="620" y="344" font-size="12">10.000 ms</text>
</svg>
