<svg xmlns="http://www.w3.org/2000/svg" width="820" height="382" viewBox="0 0 820 382">
<rect width="100%" height="100%" fill="#ffffff"/>
<text x="12" y="24" font-size="16" font-weight="700">管理 topology diff 摘要</text>
<text x="12" y="56" font-size="12">m1-s04-01-create_cluster</text>
<rect x="340" y="42" width="2" height="18" fill="#326c7a"/>
<text x="352" y="56" font-size="12">moved_ranges=0</text>
<text x="12" y="88" font-size="12">m1-s04-02-meet_nodes</text>
<rect x="340" y="74" width="2" height="18" fill="#326c7a"/>
<text x="352" y="88" font-size="12">moved_ranges=0</text>
<text x="12" y="120" font-size="12">m1-s04-03-add_replica</text>
<rect x="340" y="106" width="2" height="18" fill="#326c7a"/>
<text x="352" y="120" font-size="12">moved_ranges=0</text>
<text x="12" y="152" font-size="12">m1-s04-04-remove_replica</text>
<rect x="340" y="138" width="2" height="18" fill="#326c7a"/>
<text x="352" y="152" font-size="12">moved_ranges=0</text>
<text x="12" y="184" font-size="12">m1-s04-05-remove_primary_drained_or_safe_replaced</text>
<rect x="340" y="170" width="2" height="18" fill="#326c7a"/>
<text x="352" y="184" font-size="12">moved_ranges=0</text>
<text x="12" y="216" font-size="12">m1-s04-06-remove_failed_node</text>
<rect x="340" y="202" width="2" height="18" fill="#326c7a"/>
<text x="352" y="216" font-size="12">moved_ranges=0</text>
<text x="12" y="248" font-size="12">m1-s04-07-reshard_slot_range</text>
<rect x="340" y="234" width="2" height="18" fill="#326c7a"/>
<text x="352" y="248" font-size="12">moved_ranges=0</text>
<text x="12" y="280" font-size="12">m1-s04-08-reshard_with_keys</text>
<rect x="340" y="266" width="2" height="18" fill="#326c7a"/>
<text x="352" y="280" font-size="12">moved_ranges=0</text>
<text x="12" y="312" font-size="12">m1-s04-09-rebalance_after_imbalance</text>
<rect x="340" y="298" width="2" height="18" fill="#326c7a"/>
<text x="352" y="312" font-size="12">moved_ranges=0</text>
<text x="12" y="344" font-size="12">m1-s04-10-rolling_restart_replica_first</text>
<rect x="340" y="330" width="2" height="18" fill="#326c7a"/>
<text x="352" y="344" font-size="12">moved_ranges=0</text>
</svg>
